<svg height="511pt" viewBox="-105 1 511 511.969" width="511pt" xmlns="http://www.w3.org/2000/svg"><path d="m283.035156 282.839844c-.414062 0-.835937-.035156-1.253906-.105469-.433594-.070313-.796875-.105469-1.109375-.105469h-148.972656c-.316407 0-.679688.035156-1.113281.105469-2.175782.367187-4.40625-.238281-6.09375-1.664063-1.6875-1.425781-2.660157-3.519531-2.660157-5.730468v-37.257813c0-11.960937 9.730469-21.691406 21.6875-21.691406h125.328125c11.960938 0 21.691406 9.730469 21.691406 21.691406v37.257813c0 2.210937-.976562 4.308594-2.660156 5.730468-1.363281 1.152344-3.082031 1.769532-4.84375 1.769532zm-146.203125-15.214844h138.703125v-29.546875c0-3.6875-3-6.6875-6.6875-6.6875h-125.328125c-3.6875 0-6.6875 3-6.6875 6.6875zm0 0"/><path d="m294.859375 455.542969h-177.347656c-4.144531 0-7.503907-3.355469-7.503907-7.5v-116.460938c0-4.140625 3.359376-7.5 7.503907-7.5h177.347656c4.144531 0 7.5 3.359375 7.5 7.5 0 4.144531-3.355469 7.5-7.5 7.5h-169.847656v101.460938h169.847656c4.144531 0 7.5 3.355469 7.5 7.5s-3.359375 7.5-7.5 7.5zm0 0"/><path d="m110.78125 81.789062h-55.296875c-12.800781 0-23.210937-10.410156-23.210937-23.207031 0-12.800781 10.410156-23.210937 23.210937-23.210937h55.296875c12.800781 0 23.210938 10.410156 23.210938 23.210937 0 12.796875-10.410157 23.207031-23.210938 23.207031zm-55.296875-31.417968c-4.527344 0-8.210937 3.683594-8.210937 8.210937 0 4.523438 3.683593 8.207031 8.210937 8.207031h55.296875c4.527344 0 8.210938-3.683593 8.210938-8.207031 0-4.527343-3.683594-8.210937-8.210938-8.210937zm0 0"/><path d="m106.785156 50.371094h-47.308594c-4.140624 0-7.5-3.359375-7.5-7.5v-27.347656c0-8.558594 6.964844-15.523438 15.523438-15.523438h31.265625c4.144531 0 8.042969 1.613281 10.976563 4.546875 2.929687 2.933594 4.546874 6.832031 4.542968 10.980469v27.34375c0 4.140625-3.355468 7.5-7.5 7.5zm-39.808594-15h32.308594v-19.847656c0-.054688 0-.21875-.152344-.371094-.152343-.152344-.316406-.152344-.367187-.152344h-31.265625c-.289062 0-.523438.234375-.523438.523438zm0 0"/><path d="m131.699219 512c-11.960938 0-21.691407-9.730469-21.691407-21.6875v-201c0-8.347656 4.710938-15.691406 11.824219-19.308594v-31.925781c0-10.050781 6.875-18.527344 16.167969-20.976563-.777344-.746093-1.585938-1.464843-2.425781-2.15625l-9.402344-7.726562c-10.347656-8.5-17.316406-20.433594-19.734375-33.480469h-46.609375c-2.414063 13.046875-9.386719 24.980469-19.734375 33.480469l-9.398438 7.726562c-9.664062 7.9375-15.203124 19.660157-15.203124 32.167969v235.277344c0 8.054687 6.554687 14.609375 14.609374 14.609375 4.140626 0 7.5 3.355469 7.5 7.5 0 4.140625-3.359374 7.5-7.5 7.5-16.328124 0-29.609374-13.285156-29.609374-29.609375v-235.277344c0-17.011719 7.535156-32.960937 20.679687-43.757812l9.398437-7.726563c8.964844-7.367187 14.480469-18.234375 15.132813-29.816406.226563-3.972656 3.511719-7.078125 7.488281-7.078125h59.882813c3.976562 0 7.261719 3.105469 7.488281 7.078125.652344 11.582031 6.167969 22.449219 15.132812 29.816406l9.402344 7.722656c5.738282 4.71875 10.429688 10.433594 13.949219 16.992188 1.246094 2.324219 1.179687 5.136719-.175781 7.398438-1.351563 2.261718-3.796875 3.648437-6.433594 3.648437h-8.917969c-3.6875 0-6.6875 3-6.6875 6.6875v37.261719c0 3.65625-2.636719 6.78125-6.242187 7.394531-3.179688.539063-5.582032 3.367187-5.582032 6.578125v200.996094c0 3.6875 3 6.6875 6.6875 6.6875 4.144532 0 7.5 3.359375 7.5 7.5 0 4.144531-3.355468 7.503906-7.496093 7.503906zm0 0"/><path d="m131.699219 512h-33.984375c-4.140625 0-7.5-3.355469-7.5-7.5s3.359375-7.5 7.5-7.5h13.351562c-.6875-2.105469-1.058594-4.355469-1.058594-6.6875v-200.996094c0-8.351562 4.710938-15.695312 11.824219-19.308594v-31.925781c0-10.054687 6.875-18.53125 16.167969-20.980469-.777344-.746093-1.585938-1.464843-2.425781-2.15625l-9.402344-7.726562c-13.140625-10.796875-20.675781-26.746094-20.675781-43.753906v-81.675782h-44.722656v81.675782c0 17.007812-7.539063 32.957031-20.679688 43.753906l-9.398438 7.726562c-9.660156 7.9375-15.203124 19.660157-15.203124 32.167969v235.277344c0 8.054687 6.554687 14.609375 14.609374 14.609375h32.613282c4.140625 0 7.5 3.355469 7.5 7.5 0 4.140625-3.359375 7.5-7.5 7.5h-32.613282c-16.324218 0-29.609374-13.285156-29.609374-29.609375v-235.277344c0-17.011719 7.539062-32.960937 20.679687-43.757812l9.398437-7.726563c9.660157-7.9375 15.203126-19.664062 15.203126-32.164062v-89.351563c0-2.175781.941406-4.242187 2.585937-5.667969 1.644531-1.421874 3.820313-2.066406 5.980469-1.753906.476562.066406.839844.101563 1.144531.101563h55.300781c.304688 0 .667969-.035157 1.144532-.101563 2.152343-.308594 4.335937.332032 5.976562 1.753906 1.644531 1.425782 2.589844 3.496094 2.589844 5.667969v89.351563c0 12.503906 5.539062 24.230468 15.199218 32.167968l9.402344 7.722657c5.738282 4.71875 10.433594 10.433593 13.949219 16.992187 1.246094 2.324219 1.179687 5.132813-.171875 7.398438-1.355469 2.261718-3.800781 3.648437-6.4375 3.648437h-8.914062c-3.6875 0-6.6875 3-6.6875 6.6875v37.257813c0 3.660156-2.640626 6.785156-6.246094 7.398437-3.179688.539063-5.578125 3.367188-5.578125 6.578125v200.996094c0 3.6875 3 6.6875 6.6875 6.6875 4.140625 0 7.5 3.355469 7.5 7.5s-3.359375 7.5-7.5 7.5zm0 0"/><path d="m280.671875 512h-148.972656c-11.960938 0-21.691407-9.730469-21.691407-21.6875v-201c0-11.957031 9.730469-21.6875 21.691407-21.6875h148.972656c11.957031 0 21.6875 9.730469 21.6875 21.6875v78.285156c0 4.144532-3.355469 7.5-7.5 7.5s-7.5-3.355468-7.5-7.5v-78.285156c0-3.6875-3-6.6875-6.6875-6.6875h-148.972656c-3.6875 0-6.6875 3-6.6875 6.6875v201c0 3.683594 3 6.6875 6.6875 6.6875h148.972656c3.6875 0 6.6875-3.003906 6.6875-6.6875v-87.710938c0-4.144531 3.355469-7.5 7.5-7.5s7.5 3.355469 7.5 7.5v87.710938c0 11.957031-9.730469 21.6875-21.6875 21.6875zm0 0"/></svg>